<?xml version="1.0" standalone="no"?>
<!DOCTYPE svg PUBLIC "-//W3C//DTD SVG 20010904//EN"
 "http://www.w3.org/TR/2001/REC-SVG-20010904/DTD/svg10.dtd">
<svg version="1.0" xmlns="http://www.w3.org/2000/svg"
 width="180.000000pt" height="180.000000pt" viewBox="0 0 180.000000 180.000000"
 preserveAspectRatio="xMidYMid meet">
<metadata>
Created by potrace 1.14, written by Peter Selinger 2001-2017
</metadata>
<g transform="translate(0.000000,180.000000) scale(0.100000,-0.100000)"
fill="#000000" stroke="none">
<path d="M806 1599 c-85 -11 -190 -47 -264 -91 -73 -42 -208 -177 -250 -250
-127 -216 -127 -502 0 -716 45 -76 174 -209 242 -251 211 -127 506 -127 724 1
73 42 208 177 250 250 186 317 92 734 -211 940 -143 97 -320 139 -491 117z
m293 -129 c299 -106 466 -433 378 -738 -30 -102 -76 -180 -153 -256 -116 -117
-259 -176 -424 -176 -49 0 -95 3 -104 6 -24 9 -24 590 -1 635 19 35 70 69 105
69 37 0 88 -35 106 -74 35 -73 -19 -166 -97 -166 l-39 0 0 -161 0 -162 69 5
c252 18 436 278 377 532 -42 180 -171 304 -349 337 -175 32 -365 -67 -446
-234 -44 -89 -51 -142 -51 -389 0 -135 -4 -217 -9 -213 -25 15 -111 161 -132
222 -20 57 -24 88 -24 193 0 152 21 224 99 339 81 119 206 207 346 246 82 22
265 14 349 -15z"/>
</g>
</svg>
